PathFileType	4	(X/Y/Z)	 s10c0101.trc
DataRate	CameraRate	NumFrames	NumMarkers	Units	OrigDataRate	OrigDataStartFrame	OrigNumFrames
200	200	4	49	mm	200	1751	2000
Frame#	Time	racr			lacr			c7			jug			rlel			rdr			llel			ldr			s2			lic			ric			lasi			rasi			rpsi			lpsi			rgt			lgt			rth1			rth2			rth3			rth4			rlfc			rmfc			rsh1			rsh2			rsh3			rsh4			rlmal			rmmal			rcal			rtoe			rmt5			lth1			lth2			lth4			lth3			llfc			lmfc			llmal			lcal			lmt5			lsh1			lsh2			lsh3			lsh4			ltoe			SBIKE			LBIKE			RBIKE			
		X1	Y1	Z1	X2	Y2	Z2	X3	Y3	Z3	X4	Y4	Z4	X5	Y5	Z5	X6	Y6	Z6	X7	Y7	Z7	X8	Y8	Z8	X9	Y9	Z9	X10	Y10	Z10	X11	Y11	Z11	X12	Y12	Z12	X13	Y13	Z13	X14	Y14	Z14	X15	Y15	Z15	X16	Y16	Z16	X17	Y17	Z17	X18	Y18	Z18	X19	Y19	Z19	X20	Y20	Z20	X21	Y21	Z21	X22	Y22	Z22	X23	Y23	Z23	X24	Y24	Z24	X25	Y25	Z25	X26	Y26	Z26	X27	Y27	Z27	X28	Y28	Z28	X29	Y29	Z29	X30	Y30	Z30	X31	Y31	Z31	X32	Y32	Z32	X33	Y33	Z33	X34	Y34	Z34	X35	Y35	Z35	X36	Y36	Z36	X37	Y37	Z37	X38	Y38	Z38	X39	Y39	Z39	X40	Y40	Z40	X41	Y41	Z41	X42	Y42	Z42	X43	Y43	Z43	X44	Y44	Z44	X45	Y45	Z45	X46	Y46	Z46	X47	Y47	Z47	X48	Y48	Z48	X49	Y49	Z49	
1751	8.7550	394.744922	1280.323151	-5.815361	459.884201	1281.460556	-315.741743	369.988605	1341.815591	-176.844576	381.796820	1192.258908	-167.761174	460.419143	1020.109033	48.936747	640.109613	880.975629	-9.952506	495.922450	1022.750139	-437.077823	657.474135	881.308761	-367.563803	-110.529843	1083.680720	-248.444033	64.150710	1101.817153	-390.547912	52.107356	1125.874641	-86.480339	90.988316	1017.154971	-351.367767	63.722310	1042.724606	-102.973563	-83.229591	1144.020309	-194.905874	-65.408350	1147.423434	-306.272919	-33.515178	1012.231797	-46.532319	-24.671347	957.301039	-424.041499	92.603425	948.762100	-25.013317	180.800887	948.875081	-36.946517	255.488168	906.869001	-34.493941	188.611219	982.949289	-51.910829	361.022654	862.633209	-56.425323	346.797506	843.007314	-179.721592	272.701211	787.151989	-23.778325	228.094184	711.582660	-39.838976	154.282743	667.385780	-42.569015	250.203994	694.645736	-66.418255	78.758654	601.358523	-56.133025	108.164863	596.001457	-136.588702	30.181779	621.183959	-106.975810	181.024402	430.731298	-91.135642	102.877973	475.349132	-35.832046	43.517814	845.383579	-430.844243	107.924653	790.058674	-413.097284	137.154645	811.631981	-405.871626	135.089722	707.038995	-395.634033	201.082268	617.973380	-371.729090	186.808857	614.146738	-256.992784	140.934981	250.894146	-369.716173	90.106385	222.145309	-332.240450	261.400520	164.115567	-388.415813	155.895537	505.431003	-405.622985	177.876822	422.188379	-390.437242	153.637343	336.447047	-385.989664	205.980791	425.349258	-364.776287	342.166222	190.870706	-327.854987	-204.818697	834.365927	-225.649219	-78.171159	81.757691	-424.041869	-102.663965	80.504610	-24.387380	
1752	8.7600	393.782590	1280.380516	-4.076928	460.567850	1281.111184	-313.517366	369.662943	1341.795541	-175.468423	381.409103	1192.161743	-166.186672	460.238679	1020.275320	50.299587	640.823386	880.613849	-10.251050	495.739635	1022.838143	-436.702832	657.417006	881.255207	-367.482236	-110.087634	1084.646228	-250.508717	66.200894	1101.676294	-390.216566	51.417529	1128.689510	-87.171640	92.356099	1017.851910	-349.728862	62.517348	1044.993965	-103.097609	-83.315908	1145.254929	-193.663431	-64.080027	1147.962218	-308.193242	-35.741152	1015.546422	-48.020803	-23.001717	958.185993	-425.603476	92.184913	953.724711	-25.080531	180.328035	955.998544	-37.379534	255.947733	916.046350	-34.751968	187.017658	990.113153	-52.443191	364.305237	875.569137	-57.690394	351.257905	854.859244	-179.859384	278.242533	798.124514	-24.747695	235.655301	721.324666	-40.240999	162.973466	675.308683	-42.844092	257.970692	704.016366	-67.197442	89.037395	606.582738	-55.734601	118.710539	601.713841	-136.407882	40.350687	626.413204	-106.628834	191.174673	435.595990	-90.856327	113.263778	480.446215	-35.668546	42.938811	845.795902	-431.290527	106.037188	788.760998	-413.794704	135.565213	809.633601	-406.057867	131.442767	704.969533	-397.325015	193.602315	614.789027	-373.393898	180.282803	610.689204	-258.367956	132.878087	247.947462	-370.402429	81.599608	219.772406	-332.779096	252.056812	159.183513	-388.864195	148.228364	502.366460	-406.762437	170.160903	419.191664	-391.276953	146.207747	333.300587	-387.154218	198.425347	422.322851	-365.824256	333.207473	184.832018	-328.299944	-204.831565	834.384399	-225.645812	-78.184779	81.783882	-424.101303	-102.689071	80.509091	-24.409969	
1753	8.7650	393.008785	1280.485048	-2.356771	461.264025	1280.680401	-311.392945	372.103246	1341.775868	-176.372134	381.195364	1191.985082	-164.540295	460.112790	1020.511473	51.699207	640.741413	880.896048	-10.204920	495.520937	1022.842097	-436.433160	657.363096	881.191963	-367.403589	-109.509718	1085.542033	-251.991018	68.220066	1101.457124	-389.715566	50.866064	1131.585497	-87.550595	93.545906	1018.465447	-347.940873	61.497098	1047.197093	-102.913054	-82.530296	1146.310579	-196.096600	-62.890646	1148.531113	-309.781195	-37.908499	1019.213477	-49.026954	-21.986616	958.707426	-426.531202	91.662959	958.705217	-24.916816	179.605007	963.074834	-37.778191	256.175743	925.191115	-34.546905	185.400851	997.244853	-52.782050	367.009965	888.439824	-58.336722	355.523093	867.280645	-181.480294	283.620063	808.814115	-25.604159	243.147473	730.962881	-40.511132	171.734205	682.999224	-43.037305	266.323463	714.433214	-66.446274	98.744151	611.322723	-55.441959	129.806297	606.947328	-136.326816	49.664735	630.546643	-106.129159	201.495103	440.268046	-90.525367	123.545949	484.843623	-35.623491	42.200081	846.379372	-431.449826	104.242248	787.836509	-414.611948	134.272839	808.014682	-406.296313	127.944261	703.404515	-399.124510	186.477007	612.588807	-374.997088	174.336556	607.807942	-259.782253	124.549282	245.450013	-371.237661	73.012681	218.225173	-333.302942	242.990922	155.203415	-389.922386	140.792471	499.909942	-407.878243	162.562682	416.683867	-392.448174	138.517503	330.968287	-388.379313	190.926286	419.777684	-367.059268	324.015834	179.189711	-328.804307	-204.864183	834.437947	-225.635715	-78.250761	81.748997	-424.055235	-102.706843	80.518185	-24.444509	
1754	8.7700	392.243937	1280.711204	-0.801346	461.967722	1280.147677	-309.420458	372.096607	1341.689071	-174.945981	381.000661	1191.782407	-162.902541	459.960147	1020.815660	52.847645	640.665592	881.273789	-10.188620	495.313612	1022.804538	-436.154144	657.349886	881.135601	-367.341875	-109.377611	1086.218043	-252.753269	70.164268	1101.226783	-389.145577	50.205156	1134.482358	-87.651910	94.550831	1018.997418	-346.104965	60.579987	1049.401613	-102.630559	-81.623974	1146.934092	-198.312342	-61.634950	1149.242508	-311.089299	-39.916616	1023.247839	-49.559103	-21.418092	959.206354	-427.143766	91.051249	963.827227	-24.709122	178.812916	970.143429	-38.231293	256.101951	933.789499	-34.766875	183.771083	1004.047300	-53.186939	369.016863	901.161634	-58.689071	359.691509	879.058089	-183.014361	288.675071	819.395555	-25.985556	250.576329	740.256378	-40.742366	180.462036	690.311964	-43.195078	274.272532	724.140805	-66.468251	108.040738	615.264029	-55.107836	139.761169	611.894116	-135.750300	58.821465	633.872849	-105.932774	211.981585	444.846266	-90.116212	133.666467	488.811446	-35.237707	41.434400	847.265708	-431.669345	102.531323	787.538001	-415.446068	132.867468	807.078389	-406.659781	124.780318	702.579647	-400.864406	179.936469	611.150599	-376.557188	168.800462	605.279150	-261.629360	116.361783	244.168196	-372.537020	64.306795	217.320074	-334.030218	232.648313	151.081620	-389.874618	133.738162	498.172001	-409.079096	154.977018	414.869477	-393.649833	130.495111	329.261284	-389.439838	183.550149	417.753440	-368.511166	314.625613	174.678665	-329.634837	-204.916684	834.506093	-225.658629	-78.235067	81.819386	-424.146431	-102.725256	80.513063	-24.446388	
